<svg width="24" height="26" viewBox="0 0 24 26" fill="none" xmlns="http://www.w3.org/2000/svg">
    <path
        d="M18.6153 12.6787C18.6605 12.7204 18.6964 12.7704 18.7209 12.8256C18.7455 12.8809 18.7581 12.9403 18.7581 13.0003C18.7581 13.0604 18.7455 13.1198 18.7209 13.1751C18.6964 13.2303 18.6605 13.2803 18.6153 13.322C13.8467 17.7029 4.91791 17.7097 0.14221 13.322C0.0972626 13.2809 0.0614884 13.2315 0.0370457 13.1768C0.0126031 13.1221 4.22978e-08 13.0632 4.30072e-08 13.0037C4.37166e-08 12.9442 0.0126031 12.8854 0.0370457 12.8307C0.0614884 12.776 0.0972626 12.7266 0.14221 12.6855C4.88254 8.29096 13.8043 8.29098 18.6153 12.6787Z"
        fill="#04A4BA" />
    <path
        d="M22.6055 13.3081C19.7547 14.0859 17.2268 15.6922 15.3713 17.9047C13.5157 20.1172 12.4242 22.8267 12.2475 25.6587C12.2439 25.7058 12.2514 25.7531 12.2693 25.7972C12.2871 25.8412 12.3151 25.8808 12.351 25.9132C12.3869 25.9457 12.4299 25.97 12.4768 25.9846C12.5238 25.9991 12.5735 26.0034 12.6225 25.9973C15.8555 25.5596 18.8052 23.9932 20.9041 21.5994C23.0031 19.2056 24.1029 16.1536 23.9922 13.0304L23.9922 12.9695C24.1057 9.84356 23.005 6.78823 20.9026 4.39348C18.8002 1.99874 15.8452 0.434447 12.6083 0.00265835C12.56 -0.00335419 12.5109 0.000861325 12.4645 0.0150155C12.4181 0.0291696 12.3755 0.0528986 12.3397 0.08455C12.3039 0.116201 12.2759 0.155002 12.2575 0.198182C12.2391 0.241361 12.2309 0.287876 12.2333 0.334441C12.4106 3.16906 13.5039 5.8809 15.3621 8.09477C17.2203 10.3086 19.7515 11.9151 22.6055 12.6919C22.6768 12.7096 22.74 12.7494 22.7851 12.8052C22.8302 12.8609 22.8547 12.9294 22.8547 13C22.8547 13.0705 22.8302 13.139 22.7851 13.1948C22.74 13.2505 22.6768 13.2904 22.6055 13.3081V13.3081Z"
        fill="#04A4BA" />
</svg>