<svg width="1em" height="1em" viewBox="0 0 20 22" fill="none">
    <path
        d="M4.487 11.272A.378.378 0 014.368 11a.37.37 0 01.12-.272c3.973-3.707 11.414-3.713 15.393 0a.372.372 0 01.119.27.363.363 0 01-.119.268c-3.95 3.719-11.384 3.719-15.394.006z"
        fill="#04A4BA" />
    <path
        d="M1.162 10.74a11.95 11.95 0 006.029-3.89A11.399 11.399 0 009.794.289a.262.262 0 00-.086-.216.279.279 0 00-.226-.07 11.112 11.112 0 00-6.902 3.72 10.526 10.526 0 00-2.573 7.251v.052a10.514 10.514 0 002.574 7.256c1.752 2.027 4.215 3.35 6.912 3.716a.286.286 0 00.224-.07.27.27 0 00.089-.211 11.404 11.404 0 00-2.607-6.566 11.956 11.956 0 00-6.037-3.89.278.278 0 01-.15-.096.265.265 0 010-.33.278.278 0 01.15-.096z"
        fill="#04A4BA" />
</svg>