<svg xmlns="http://www.w3.org/2000/svg" viewBox="0 0 22.27 20"><defs><style>.cls-1{fill:#353534;}.cls-2{fill:none;opacity:0.2;}</style></defs><g id="Layer_2" data-name="Layer 2"><g id="Layer_1-2" data-name="Layer 1"><path class="cls-1" d="M11.74,10h0v4.66A4.66,4.66,0,0,0,16.4,10V5.31A4.66,4.66,0,0,0,11.74,10Z"/><path class="cls-1" d="M0,6.9H0v4.66A4.66,4.66,0,0,0,4.66,7h0V2.29A4.66,4.66,0,0,0,0,6.9Z"/><path class="cls-1" d="M17.61,5.31V13.1h0a4.65,4.65,0,0,0,4.66,4.61V10A4.66,4.66,0,0,0,17.61,5.31Z"/><path class="cls-1" d="M10.53,7h0v0h0A4.66,4.66,0,0,0,5.87,2.31V10h0V10h0a4.65,4.65,0,0,0,4.66,4.6V7Z"/><rect class="cls-2" x="1.63" width="20" height="20"/></g></g></svg>