<svg xmlns="http://www.w3.org/2000/svg" viewBox="0 0 64.68 64.68"><defs><style>.cls-1{fill:#353534;}.cls-2{fill:none;opacity:0.2;}</style></defs><g id="Layer_2" data-name="Layer 2"><g id="Layer_1-2" data-name="Layer 1"><path class="cls-1" d="M33.15,32.26h0v14a14,14,0,0,0,14-14v-14A14,14,0,0,0,33.15,32.26Z"/><path class="cls-1" d="M1.94,23h0V37a14,14,0,0,0,14-13.82h0v-14A14,14,0,0,0,1.94,23Z"/><path class="cls-1" d="M48.76,18.28V41.63h0a14,14,0,0,0,14,13.85V32.26A14,14,0,0,0,48.76,18.28Z"/><path class="cls-1" d="M31.53,23.24h0v-.09h0a14,14,0,0,0-14-13.89v23h0v.16h0a14,14,0,0,0,14,13.83v-23Z"/><rect class="cls-2" width="64.68" height="64.68"/></g></g></svg>