<svg fill="none" height="96" viewBox="0 0 671 96" width="671" xmlns="http://www.w3.org/2000/svg"><rect fill="#1d2b37" height="96" rx="10" width="671"/><g fill="#61e24b"><path d="m418 32h19v31h-19z"/><path d="m49.14 53h2v2h-2zm-6 2h6v2h-6zm-2-14h2v14h-2zm2-2h6v2h-6zm6 2h2v2h-2zm11.92 2h2v2h-2zm0 12h2v2h-2zm19.92-16h2v16h-2zm-6 16h6v2h-6zm-2-16h2v16h-2zm15.92 6h2v4h-2zm8 6h2v4h-2zm-6 4h6v2h-6zm-2-2h2v2h-2zm2-4h6v2h-6zm6-4h2v2h-2zm-6-2h6v2h-6zm21.92 10h2v2h-2zm-6 2h6v2h-6zm-2-10h2v4h6v-4h2v6h-8v4h-2zm2-2h6v2h-6zm19.92 0h4v2h-4zm-2 2h2v2h-2zm-4-2h2v4h2v2h-2v8h-2zm15.92 2h2v4h-2zm8 6h2v4h-2zm-6 4h6v2h-6zm-2-2h2v2h-2zm2-4h6v2h-6zm6-4h2v2h-2zm-6-2h6v2h-6zm17.92 2h2v6h-2zm2 6h2v6h-2zm-4-12h2v6h-2zm23.92 0h2v18h-2v-12h-2v-2h2zm-4 6h2v2h-2zm-2 2h2v2h-2zm-2-2h2v2h-2zm-4-6h2v4h2v2h-2v12h-2zm21.92 6h2v6h-2zm2 6h2v6h-2zm-4-12h2v6h-2zm21.92 2h2v14h-2zm-8-2h8v2h-6v14h6v2h-8zm23.92 14h2v2h-2zm-6 2h6v2h-6zm-2-10h2v4h6v-4h2v6h-8v4h-2zm2-2h6v2h-6zm13.92 2h2v4h-2zm8 6h2v4h-2zm-6 4h6v2h-6zm-2-2h2v2h-2zm2-4h6v2h-6zm6-4h2v2h-2zm-6-2h6v2h-6zm21.92 12h2v2h-2zm-2-2h2v2h-2zm-2-2h2v2h-2zm-4-12h2v10h2v2h-2v6h-2zm4 8h2v2h-2zm2-2h2v2h-2zm2-2h2v2h-2zm9.92-2h2v2h4v2h-4v10h-2v-10h-2v-2h2zm2 14h6v2h-6zm19.92-10h2v10h-2zm-6 10h6v2h-6zm-2-10h2v10h-2zm2-2h6v2h-6zm21.92 2h2v10h-2zm-8-2h8v2h-6v10h6v2h-6v4h-2z"/><path d="m344.16 45h2v12h-2zm-4-2h4v2h-4zm-2 2h2v8h-2zm-6-2h6v2h-4v12h-2zm25.92 12h2v2h-2zm-2-2h2v2h-2zm-2-2h2v2h-2zm-4-12h2v10h2v2h-2v6h-2zm4 8h2v2h-2zm2-2h2v2h-2zm2-2h2v2h-2zm7.92 2h2v10h-2zm8-6h2v18h-8v-2h6v-10h-6v-2h6zm11.92 4h2v14h-2zm0-4h2v2h-2zm17.92 4h4v2h-4zm-2 2h2v2h-2zm-4-2h2v4h2v2h-2v8h-2z"/></g></svg>